<svg xmlns="http://www.w3.org/2000/svg" xmlns:xlink="http://www.w3.org/1999/xlink" width="480" zoomAndPan="magnify" viewBox="0 0 360 359.999987" height="480" preserveAspectRatio="xMidYMid meet" version="1.0"><defs><g/></defs><g fill="#f2e9e4" fill-opacity="1"><g transform="translate(47.358789, 271.946244)"><g><path d="M 190.59375 -155.828125 C 207.4375 -155.828125 220.140625 -151.425781 228.703125 -142.625 C 237.265625 -133.832031 241.546875 -119.707031 241.546875 -100.25 L 241.546875 0 L 218.65625 0 L 218.65625 -99.140625 C 218.65625 -111.515625 215.976562 -120.796875 210.625 -126.984375 C 205.269531 -133.179688 197.332031 -136.28125 186.8125 -136.28125 C 172.019531 -136.28125 161.269531 -131.992188 154.5625 -123.421875 C 147.863281 -114.859375 144.515625 -102.25 144.515625 -85.59375 L 144.515625 0 L 121.46875 0 L 121.46875 -99.140625 C 121.46875 -107.421875 120.28125 -114.304688 117.90625 -119.796875 C 115.539062 -125.285156 112.003906 -129.40625 107.296875 -132.15625 C 102.597656 -134.90625 96.664062 -136.28125 89.5 -136.28125 C 79.351562 -136.28125 71.207031 -134.179688 65.0625 -129.984375 C 58.914062 -125.796875 54.46875 -119.582031 51.71875 -111.34375 C 48.976562 -103.113281 47.609375 -92.992188 47.609375 -80.984375 L 47.609375 0 L 24.4375 0 L 24.4375 -153.03125 L 43.140625 -153.03125 L 46.640625 -131.390625 L 47.890625 -131.390625 C 50.960938 -136.691406 54.828125 -141.15625 59.484375 -144.78125 C 64.140625 -148.414062 69.351562 -151.164062 75.125 -153.03125 C 80.894531 -154.894531 87.035156 -155.828125 93.546875 -155.828125 C 105.179688 -155.828125 114.929688 -153.660156 122.796875 -149.328125 C 130.660156 -145.003906 136.363281 -138.421875 139.90625 -129.578125 L 141.15625 -129.578125 C 146.1875 -138.421875 153.078125 -145.003906 161.828125 -149.328125 C 170.578125 -153.660156 180.164062 -155.828125 190.59375 -155.828125 Z M 190.59375 -155.828125 "/></g></g></g></svg>